<svg xmlns:xlink="http://www.w3.org/1999/xlink" id="SvgjsSvg1001" width="240" height="119" xmlns="http://www.w3.org/2000/svg" version="1.1" xlink="http://www.w3.org/1999/xlink" xmlns:svgjs="http://svgjs.com/svgjs" preserveAspectRatio="xMidYMid meet" viewBox="0 -3.3280795719292655e-7 300.0000305175781 43.605186462402344" overflow="visible"><defs id="SvgjsDefs1002"></defs><g id="SvgjsG1008" transform="scale(0.4605533379515657)" opacity="1"><g id="SvgjsG1009" class="W0wI0Nv0U" transform="translate(-11.542797221988359, -68.0884697846137) scale(2.308559444397672)" light-content="false" non-strokable="false" fill="#0773ED"><path d="M23.943 30.807L5 50.001l18.942 19.192a4.386 4.386 0 0 0 6.258.002 4.522 4.522 0 0 0 .002-6.338L18.193 50.695l-3.624 2.289 15.634-15.841a4.494 4.494 0 0 0 1.295-3.168 4.5 4.5 0 0 0-1.297-3.17 4.387 4.387 0 0 0-6.258.002zm52.114.001L95 50.001 76.058 69.193a4.386 4.386 0 0 1-6.258.002 4.522 4.522 0 0 1-.002-6.338l12.009-12.161 3.624 2.289-15.635-15.841a4.494 4.494 0 0 1-1.295-3.168 4.5 4.5 0 0 1 1.297-3.17 4.386 4.386 0 0 1 6.259.002zm-15.158 1.544a4.492 4.492 0 0 0-2.366-2.476 4.386 4.386 0 0 0-5.825 2.288l-13.82 32.062a4.496 4.496 0 0 0-.048 3.422 4.492 4.492 0 0 0 2.366 2.476 4.386 4.386 0 0 0 5.825-2.288l13.82-32.062a4.496 4.496 0 0 0 .048-3.422z" fill="#0773ED"></path></g><g id="SvgjsG1010" class="text" transform="translate(448.8303475543842, 69.98999969482422) scale(1)" light-content="false" fill="#171717"><path d="M-136.38 -45.48L-145.74 -45.48L-154.02 -10.68L-163.2 -45.48L-174.3 -45.48L-183.42 -10.68L-191.76 -45.48L-201.06 -45.48L-189.42 0.54L-177.54 0.54L-168.72 -32.1L-159.9 0.54L-148.02 0.54Z M-128.34 -45.48L-128.34 0L-118.8 0L-118.8 -45.48Z M-70.08 -45.48L-79.62 -45.48L-79.62 -15.48L-97.5 -45.48L-108.36 -45.48L-108.36 0L-98.82 0L-98.82 -30L-81 0L-70.08 0Z M-54.9 -3.78C-51.7 -0.58 -46.9 1.02 -40.5 1.02C-34.06 1.02 -29.26 -0.58 -26.1 -3.78C-22.94 -6.98 -21.36 -11.52 -21.36 -17.4L-21.36 -45.48L-30.9 -45.48L-30.9 -17.4C-30.9 -14 -31.71 -11.43 -33.33 -9.69C-34.95 -7.95 -37.34 -7.08 -40.5 -7.08C-43.7 -7.08 -46.11 -7.95 -47.73 -9.69C-49.35 -11.43 -50.16 -14 -50.16 -17.4L-50.16 -45.48L-59.7 -45.48L-59.7 -17.4C-59.7 -11.52 -58.1 -6.98 -54.9 -3.78Z M27.3 -45.48L17.76 -45.48L17.76 -15.48L-0.12 -45.48L-10.98 -45.48L-10.98 0L-1.44 0L-1.44 -30L16.38 0L27.3 0Z M64.44 -8.22L47.28 -8.22L47.28 -45.48L37.74 -45.48L37.74 0L64.44 0Z M79.62 -2.07C83.06 -0.01 87.26 1.02 92.22 1.02C97.14 1.02 101.32 -0.01 104.76 -2.07C108.2 -4.13 110.79 -6.95 112.53 -10.53C114.27 -14.11 115.14 -18.16 115.14 -22.68C115.14 -27.08 114.27 -31.07 112.53 -34.65C110.79 -38.23 108.19 -41.07 104.73 -43.17C101.27 -45.27 97.1 -46.32 92.22 -46.32C87.3 -46.32 83.11 -45.27 79.65 -43.17C76.19 -41.07 73.59 -38.24 71.85 -34.68C70.11 -31.12 69.24 -27.12 69.24 -22.68C69.24 -18.16 70.11 -14.11 71.85 -10.53C73.59 -6.95 76.18 -4.13 79.62 -2.07ZM99.33 -9.12C97.35 -7.76 94.98 -7.08 92.22 -7.08C87.98 -7.08 84.72 -8.52 82.44 -11.4C80.16 -14.28 79.02 -18.04 79.02 -22.68C79.02 -25.64 79.52 -28.3 80.52 -30.66C81.52 -33.02 83.01 -34.87 84.99 -36.21C86.97 -37.55 89.38 -38.22 92.22 -38.22C94.94 -38.22 97.29 -37.55 99.27 -36.21C101.25 -34.87 102.76 -33.04 103.8 -30.72C104.84 -28.4 105.36 -25.78 105.36 -22.86C105.36 -19.82 104.85 -17.11 103.83 -14.73C102.81 -12.35 101.31 -10.48 99.33 -9.12Z M125.91 -5.31C129.85 -1.09 135.72 1.02 143.52 1.02C145.84 1.02 148.28 0.71 150.84 0.09C153.4 -0.53 155.84 -1.44 158.16 -2.64L155.34 -10.5C153.22 -9.38 151.21 -8.53 149.31 -7.95C147.41 -7.37 145.48 -7.08 143.52 -7.08C139.2 -7.08 135.82 -8.5 133.38 -11.34C130.94 -14.18 129.72 -17.96 129.72 -22.68C129.72 -25.64 130.31 -28.3 131.49 -30.66C132.67 -33.02 134.32 -34.87 136.44 -36.21C138.56 -37.55 141.02 -38.22 143.82 -38.22C147.58 -38.22 151.16 -37.4 154.56 -35.76L154.56 -44.1C152.64 -44.9 150.85 -45.47 149.19 -45.81C147.53 -46.15 145.64 -46.32 143.52 -46.32C138.44 -46.32 134.14 -45.28 130.62 -43.2C127.1 -41.12 124.45 -38.29 122.67 -34.71C120.89 -31.13 120 -27.1 120 -22.62C120 -15.3 121.97 -9.53 125.91 -5.31Z M177.3 -17.28L190.56 0L202.56 0L183.48 -24.24L202.26 -45.48L190.38 -45.48L175.02 -28.26L175.02 -45.48L165.48 -45.48L165.48 0L175.02 0L175.02 -14.76Z" fill="#171717">
</path></g></g
></svg>